HIERARCHY
ROOT Hips
{
	OFFSET 0.000000 0.000000 0.000000 
	CHANNELS 6 Xposition Yposition Zposition Zrotation Yrotation Xrotation
	JOINT LeftUpLeg
	{
		OFFSET 1.363060 -1.794630 0.839290 
		CHANNELS 3 Zrotation Yrotation Xrotation
		JOINT LeftLeg
		{
			OFFSET 2.448110 -6.726130 0.000000 
			CHANNELS 3 Zrotation Yrotation Xrotation
			JOINT LeftFoot
			{
				OFFSET 2.562200 -7.039590 0.000000 
				CHANNELS 3 Zrotation Yrotation Xrotation
				JOINT LeftToeBase
				{
					OFFSET 0.157640 -0.433110 2.322550 
					CHANNELS 3 Zrotation Yrotation Xrotation
					End Site
					{
						OFFSET 0.000000 0.000000 0.000000 
					}
				}
			}
		}
	}
	JOINT RightUpLeg
	{
		OFFSET -1.305520 -1.794630 0.839290 
		CHANNELS 3 Zrotation Yrotation Xrotation
		JOINT RightLeg
		{
			OFFSET -2.542530 -6.985550 0.000000 
			CHANNELS 3 Zrotation Yrotation Xrotation
			JOINT RightFoot
			{
				OFFSET -2.568260 -7.056230 0.000000 
				CHANNELS 3 Zrotation Yrotation Xrotation
				JOINT RightToeBase
				{
					OFFSET -0.164730 -0.452590 2.363150 
					CHANNELS 3 Zrotation Yrotation Xrotation
					End Site
					{
						OFFSET 0.000000 0.000000 0.000000 
					}
				}
			}
		}
	}
	JOINT Spine
	{
		OFFSET 0.028270 2.035590 -0.193380 
		CHANNELS 3 Zrotation Yrotation Xrotation
		JOINT Spine1
		{
			OFFSET 0.056720 2.048850 -0.042750 
			CHANNELS 3 Zrotation Yrotation Xrotation
			JOINT Neck1
			{
				OFFSET -0.054170 1.746240 0.172020 
				CHANNELS 3 Zrotation Yrotation Xrotation
				JOINT Head
				{
					OFFSET 0.104070 1.761360 -0.123970 
					CHANNELS 3 Zrotation Yrotation Xrotation
					End Site
					{
						OFFSET 0.000000 0.000000 0.000000 
					}
				}
			}
			JOINT LeftArm
			{
				OFFSET 3.362410 1.200890 -0.311210 
				CHANNELS 3 Zrotation Yrotation Xrotation
				JOINT LeftForeArm
				{
					OFFSET 4.983000 -0.000000 -0.000000 
					CHANNELS 3 Zrotation Yrotation Xrotation
					JOINT LeftHand
					{
						OFFSET 3.483560 -0.000000 -0.000000 
						CHANNELS 3 Zrotation Yrotation Xrotation
						JOINT LeftHandIndex1
						{
							OFFSET 0.715260 -0.000000 -0.000000 
							CHANNELS 3 Zrotation Yrotation Xrotation
							End Site
							{
								OFFSET 0.000000 0.000000 0.000000 
							}
						}
					}
				}
			}
			JOINT RightArm
			{
				OFFSET -3.136600 1.374050 -0.404650 
				CHANNELS 3 Zrotation Yrotation Xrotation
				JOINT RightForeArm
				{
					OFFSET -5.241900 -0.000000 -0.000000 
					CHANNELS 3 Zrotation Yrotation Xrotation
					JOINT RightHand
					{
						OFFSET -3.444170 -0.000000 -0.000000 
						CHANNELS 3 Zrotation Yrotation Xrotation
						JOINT RightHandIndex1
						{
							OFFSET -0.622530 -0.000000 -0.000000 
							CHANNELS 3 Zrotation Yrotation Xrotation
							End Site
							{
								OFFSET 0.000000 0.000000 0.000000 
							}
						}
					}
				}
			}
		}
	}
}
MOTION
Frames: 13
Frame Time: 0.041667
0.656099 17.920863 9.882396 -179.627724 -3.678682 -171.840177 -16.601025 -6.075113 -13.285951 -0.308861 6.323450 20.596777 0.472838 -0.765720 -1.895676 0.245300 -3.187300 -8.800800 14.418081 8.989509 -16.459701 -1.389979 -9.237384 28.183834 -0.432465 -1.364943 -11.651905 -0.294000 -3.486500 9.636300 0.748058 1.055193 -1.673923 4.543450 1.013571 0.028379 2.474744 0.539417 29.144446 2.207400 -1.905300 16.579100 -78.665468 -2.006315 19.715377 10.939991 -21.358074 -2.414509 -0.250301 -1.615082 11.616780 -7.125000 0.000000 0.000000 75.084595 -4.001438 16.803307 -17.335201 24.717747 -4.677542 0.523051 -0.451869 21.855149 7.125000 0.000000 0.000000 
0.653277 17.918847 9.881590 -179.632060 -3.757476 -171.864892 -16.600515 -6.148770 -13.226283 -0.316119 6.306961 20.552324 0.469835 -0.769196 -1.805514 0.250100 -3.217900 -8.886000 14.404911 9.061095 -16.370300 -1.382823 -9.224317 28.147654 -0.437347 -1.371528 -11.736746 -0.322900 -3.652400 10.100800 0.745405 1.026644 -1.690332 4.546426 1.001940 -0.015145 2.474794 0.507979 29.162956 2.191900 -1.916900 16.567400 -78.616183 -1.952471 19.656621 10.888854 -21.283216 -2.389851 -0.256729 -1.622156 11.624138 -7.125000 0.000000 0.000000 75.109493 -3.971411 16.783039 -17.265654 24.636497 -4.647811 0.514277 -0.478790 21.994001 7.125000 0.000000 0.000000 
0.649951 17.918545 9.878566 -179.582444 -3.816772 -171.924983 -16.551113 -6.214112 -13.132046 -0.317833 6.301660 20.539548 0.467689 -0.760937 -1.794609 0.238500 -3.143200 -8.677700 14.468971 9.035752 -16.277347 -1.376389 -9.211467 28.116447 -0.426916 -1.434673 -11.796520 -0.307000 -3.562100 9.847800 0.767807 0.997404 -1.687773 4.547436 0.986934 -0.025920 2.555091 0.500470 29.173655 2.238800 -1.924600 16.550600 -78.617953 -1.873993 19.421880 10.854344 -21.233457 -2.375333 -0.265255 -1.619705 11.767363 -7.125000 0.000000 0.000000 75.126071 -3.991792 16.798028 -17.258691 24.630011 -4.646692 0.516257 -0.493583 22.017386 7.125000 0.000000 0.000000 
0.647028 17.921467 9.875543 -179.549427 -3.876214 -171.935577 -16.524599 -6.203405 -13.105267 -0.322099 6.291213 20.510799 0.481637 -0.819222 -1.800238 0.252300 -3.231800 -8.924600 14.510675 8.968463 -16.265516 -1.372828 -9.207269 28.103374 -0.406790 -1.527894 -11.817841 -0.281200 -3.410600 9.424000 0.787132 0.984563 -1.653876 4.554239 0.977360 0.049483 2.467760 0.520023 29.135440 2.199200 -1.920300 16.523100 -78.574724 -1.910508 19.336301 10.827125 -21.193615 -2.368618 -0.259628 -1.613508 11.790969 -7.125000 0.000000 0.000000 75.141224 -3.887825 16.806948 -17.269338 24.639171 -4.652179 0.518601 -0.502204 21.922782 7.125000 0.000000 0.000000 
0.645819 17.921568 9.874434 -179.579601 -3.874993 -171.908842 -16.566541 -6.258656 -13.081693 -0.326888 6.281780 20.482957 0.452626 -0.688477 -1.852287 0.263300 -3.301100 -9.118300 14.465448 9.053202 -16.247116 -1.370073 -9.205181 28.093844 -0.401133 -1.574951 -11.885646 -0.278400 -3.393800 9.377000 0.778608 0.996474 -1.615900 4.563518 0.977723 0.149763 2.471441 0.489849 29.067335 2.202600 -1.923900 16.495800 -78.518916 -2.010481 19.240196 10.786214 -21.130987 -2.355826 -0.260124 -1.604179 11.832140 -7.125000 0.000000 0.000000 75.155482 -3.769659 16.981727 -17.349094 24.727404 -4.686565 0.524358 -0.488901 21.644038 7.125000 0.000000 0.000000 
0.643601 17.921568 9.874636 -179.621270 -3.875792 -171.895963 -16.625484 -6.269548 -13.066781 -0.330795 6.272441 20.458126 0.429573 -0.592083 -1.854325 0.277900 -3.390700 -9.368600 14.402458 9.079697 -16.257136 -1.370531 -9.207669 28.095894 -0.407257 -1.552977 -11.894720 -0.284600 -3.430800 9.480500 0.777759 1.005036 -1.614090 4.586243 0.981794 0.140130 2.477211 0.470849 29.076126 2.208700 -1.935200 16.512800 -78.523811 -2.015049 19.141585 10.782369 -21.124333 -2.352175 -0.260869 -1.609398 11.884098 -7.125000 0.000000 0.000000 75.156997 -3.761407 17.116918 -17.447952 24.840469 -4.730323 0.532875 -0.469407 21.555539 7.125000 0.000000 0.000000 
0.642594 17.921871 9.876047 -179.666148 -3.922081 -171.904541 -16.662422 -6.346067 -13.029620 -0.334227 6.264305 20.438939 0.433094 -0.621469 -1.794139 0.269500 -3.339100 -9.224400 14.356338 9.121382 -16.229241 -1.370132 -9.208713 28.097820 -0.398467 -1.619904 -11.981323 -0.289500 -3.460200 9.562600 0.790161 0.982526 -1.643087 4.643494 0.975316 0.042377 2.474880 0.483469 29.036261 2.217400 -1.935800 16.475100 -78.523960 -1.963223 19.060039 10.760902 -21.092080 -2.338897 -0.258401 -1.623286 11.856586 -7.125000 0.000000 0.000000 75.125440 -3.812475 17.177666 -17.469609 24.865607 -4.738937 0.535814 -0.457588 21.702758 7.125000 0.000000 0.000000 
0.641687 17.921266 9.875744 -179.662050 -3.953769 -171.923904 -16.657981 -6.393598 -13.000268 -0.334461 6.263242 20.438596 0.439972 -0.660447 -1.745398 0.262300 -3.295100 -9.101300 14.367630 9.090493 -16.218592 -1.369042 -9.206727 28.092978 -0.394784 -1.641179 -11.997048 -0.283300 -3.423100 9.458900 0.787637 0.982100 -1.652934 4.639378 0.976511 -0.010671 2.588219 0.526236 29.037243 2.289300 -1.914000 16.470900 -78.436595 -1.904276 19.140257 10.727279 -21.047016 -2.322055 -0.264143 -1.631272 11.672826 -7.125000 0.000000 0.000000 75.141067 -3.795397 17.127078 -17.433940 24.825845 -4.724364 0.520803 -0.472171 21.872474 7.125000 0.000000 0.000000 
0.638461 17.921770 9.873426 -179.630249 -4.034152 -171.908005 -16.623689 -6.476404 -12.996168 -0.330831 6.273122 20.466505 0.458924 -0.742415 -1.747438 0.250000 -3.217200 -8.883900 14.400547 9.003005 -16.229977 -1.364373 -9.197599 28.065768 -0.397361 -1.613830 -11.948525 -0.282300 -3.417400 9.443000 0.790443 0.959545 -1.658612 4.608035 0.965744 -0.023228 2.661997 0.558107 29.077828 2.338500 -1.900800 16.509700 -78.380646 -1.859198 19.110785 10.704929 -21.017564 -2.313229 -0.269832 -1.629821 11.630151 -7.125000 0.000000 0.000000 75.183856 -3.748082 17.072351 -17.433739 24.825197 -4.726643 0.516501 -0.489027 21.913349 7.125000 0.000000 0.000000 
0.635438 17.921367 9.872822 -179.637476 -4.084784 -171.903493 -16.630311 -6.520739 -13.000079 -0.324793 6.287111 20.507791 0.473493 -0.802783 -1.780613 0.231600 -3.097500 -8.550400 14.386288 9.000659 -16.213157 -1.358003 -9.186358 28.031833 -0.395266 -1.616778 -11.930376 -0.287700 -3.449600 9.533000 0.785052 0.946978 -1.677943 4.588100 0.962930 -0.086747 2.686380 0.538559 29.112954 2.350100 -1.912300 16.537200 -78.337828 -1.768059 19.033176 10.698914 -21.014174 -2.314248 -0.267010 -1.625735 11.695739 -7.125000 0.000000 0.000000 75.241506 -3.777774 17.077124 -17.514388 24.919500 -4.764424 0.511108 -0.482415 21.838280 7.125000 0.000000 0.000000 
0.632213 17.922677 9.872822 -179.549250 -4.104559 -171.871019 -16.534104 -6.598979 -13.036853 -0.322729 6.297919 20.527752 0.452582 -0.701615 -1.801352 0.227700 -3.071100 -8.476800 14.469736 9.045559 -16.217642 -1.353410 -9.175491 28.008434 -0.393617 -1.624415 -11.939422 -0.288700 -3.455500 9.549600 0.802336 0.943257 -1.713666 4.555809 0.965626 -0.155155 2.754767 0.528716 29.093617 2.386800 -1.912900 16.515000 -78.275948 -1.638893 19.044523 10.710788 -21.041446 -2.321347 -0.265052 -1.625571 11.700256 -7.125000 0.000000 0.000000 75.262344 -3.839869 17.166695 -17.574985 24.991852 -4.791649 0.506061 -0.467673 21.665385 7.125000 0.000000 0.000000 
0.630197 17.923181 9.872318 -179.536256 -4.138165 -171.830393 -16.518576 -6.608884 -13.082057 -0.323516 6.299306 20.526758 0.448626 -0.683182 -1.795483 0.225500 -3.056700 -8.436600 14.468913 9.106663 -16.225737 -1.352590 -9.173070 28.003556 -0.409687 -1.581950 -12.018350 -0.315000 -3.608000 9.976400 0.797301 0.961170 -1.757506 4.541306 0.980080 -0.253010 2.817431 0.492237 29.114682 2.412000 -1.925600 16.522100 -78.210974 -1.517326 19.123492 10.713250 -21.053948 -2.323718 -0.269181 -1.623454 11.718795 -7.125000 0.000000 0.000000 75.262791 -3.850780 17.247120 -17.535515 24.940538 -4.770583 0.523580 -0.465287 21.541078 7.125000 0.000000 0.000000 
0.628988 17.923382 9.870907 -179.586353 -4.165291 -171.843908 -16.581185 -6.602681 -13.056651 -0.323765 6.296192 20.523026 0.446901 -0.682067 -1.787023 0.235100 -3.120500 -8.614500 14.417603 9.074600 -16.213564 -1.352099 -9.174604 28.003730 -0.390952 -1.662506 -12.017055 -0.296900 -3.503600 9.684000 0.784676 0.956756 -1.777764 4.553501 0.981103 -0.322892 2.862977 0.506591 29.161911 2.434400 -1.921300 16.541200 -78.162569 -1.407604 19.088910 10.703270 -21.046026 -2.319915 -0.271926 -1.624859 11.728608 -7.125000 0.000000 0.000000 75.262259 -3.881976 17.370961 -17.538602 24.946166 -4.774205 0.531249 -0.481595 21.429427 7.125000 0.000000 0.000000 
